# xmcd
#
# Track frame offsets:
#	150
#	12145
#	30895
#	42640
#	61907
#	70452
#	87257
#	99392
#	115540
#	124787
#	136737
#	147110
#	159405
#	172392
#	183747
#	201397
#	217270
#	230760
#	245785
#	256705
#
# Disc length: 3601 seconds
#
# Revision: 0
# Processed by: cddbd v1.5.2PL0 Copyright (c) Steve Scherf et al.
# Submitted via: audiograbber 1.83.01
#
DISCID=250e0f14
DTITLE=The Bachelors - THE BACHELORS - The Bachelors
DYEAR=1900
DGENRE=Country
TTITLE0=Charmaine
TTITLE1=Danny Boy
TTITLE2=Diane
TTITLE3=He Ain't Heavy He's My Brother
TTITLE4=I Believe
TTITLE5=I Need Love
TTITLE6=I Wouldn't Trade You For The World
TTITLE7=Key To My Heart
TTITLE8=Love Me With All Your Heart
TTITLE9=Maggie
TTITLE10=Marie
TTITLE11=Marta
TTITLE12=No Arms Can Ever Hold You
TTITLE13=Ramona
TTITLE14=Rose Of Tralee
TTITLE15=Stay
TTITLE16=The Sound Of Silence
TTITLE17=The Unicorn
TTITLE18=Whispering 
TTITLE19=You'll Never Walk Alone
EXTD=
EXTT0=
EXTT1=
EXTT2=
EXTT3=
EXTT4=
EXTT5=
EXTT6=
EXTT7=
EXTT8=
EXTT9=
EXTT10=
EXTT11=
EXTT12=
EXTT13=
EXTT14=
EXTT15=
EXTT16=
EXTT17=
EXTT18=
EXTT19=
PLAYORDER=
